#!OML:ASF G:\JayActor3\Patient Classification 1\Patient 1\Session 6\male.ASF
:FULLY-SPECIFIED
:DEGREES
1539
root -34.1371 15.1354 1.81738 541.268 -8.35077 -536.088
lowerback 29.5023 1.39124 -2.19745
upperback 9.85907 -1.35163 -0.771908
thorax -5.1408 -1.67755 0.944569
lowerneck 16.6488 0.37327 2.85226
upperneck -7.59502 1.18498 1.14307
head -4.9668 0.376433 -0.201139
rclavicle 1.43125e-014 1.90833e-014
rhumerus -30.1849 13.1696 -86.2508
rradius 120.67
rwrist 10.8935
rhand 14.6396 -16.4321
rfingers 7.12502
rthumb 39.5123 -41.8034
lclavicle 1.43125e-014 1.90833e-014
lhumerus -36.3706 0.218182 82.2233
lradius 126.819
lwrist 9.09045
lhand 3.95742 31.1035
lfingers 7.12502
lthumb 29.375 58.8021
rfemur -75.2892 -9.9027 31.727
rtibia 101.091
rfoot -18.8352 -8.59288
rtoes -29.787
lfemur -31.0614 20.3971 -19.6359
ltibia 62.7323
lfoot -30.3203 9.24529
ltoes -6.60489
1540
root -34.1669 15.1392 1.73051 541.22 -8.20816 -536.19
lowerback 29.4118 1.38121 -2.27614
upperback 9.85695 -1.37857 -0.736388
thorax -5.0984 -1.69198 1.03565
lowerneck 16.622 0.431986 2.72755
upperneck -7.4492 1.22946 1.13153
head -4.91684 0.404561 -0.188302
rclavicle -3.97569e-015 -1.27222e-014
rhumerus -30.2213 13.3629 -86.2411
rradius 120.642
rwrist 10.8933
rhand 14.7026 -16.4735
rfingers 7.12502
rthumb 39.5717 -41.8274
lclavicle -3.97569e-015 -1.27222e-014
lhumerus -36.4037 0.305657 82.3126
lradius 126.785
lwrist 9.07447
lhand 3.87117 31.1199
lfingers 7.12502
lthumb 29.2927 58.833
rfemur -74.4133 -9.63544 31.6041
rtibia 98.2954
rfoot -18.9349 -9.09618
rtoes -29.9208
lfemur -30.4173 20.3683 -19.6577
ltibia 62.541
lfoot -30.5442 9.54191
ltoes -7.07157
1541
root -34.1961 15.1458 1.64216 541.183 -8.05493 -536.295
lowerback 29.3155 1.36901 -2.35538
upperback 9.83517 -1.40216 -0.699015
thorax -5.07519 -1.70199 1.12816
lowerneck 16.6027 0.499427 2.57098
upperneck -7.3176 1.28144 1.13647
head -4.87291 0.435822 -0.165878
rclavicle 2.94201e-014 -1.11319e-014
rhumerus -30.2831 13.5778 -86.2336
rradius 120.623
rwrist 10.8778
rhand 14.7544 -16.51
rfingers 7.12502
rthumb 39.6204 -41.8494
lclavicle 2.94201e-014 -1.11319e-014
lhumerus -36.4705 0.399702 82.3948
lradius 126.765
lwrist 9.04538
lhand 3.78187 31.1159
lfingers 7.12502
lthumb 29.2074 58.8438
rfemur -73.4611 -9.36249 31.4484
rtibia 95.3952
rfoot -19.0512 -9.45014
rtoes -29.9933
lfemur -29.7517 20.3493 -19.6763
ltibia 62.2976
lfoot -30.7291 9.81774
ltoes -7.5637
1542
root -34.2249 15.1553 1.55246 541.157 -7.89789 -536.403
lowerback 29.2148 1.35279 -2.42071
upperback 9.79694 -1.42206 -0.665921
thorax -5.0686 -1.70747 1.20691
lowerneck 16.5948 0.565616 2.40947
upperneck -7.21364 1.33284 1.14828
head -4.83968 0.466033 -0.140545
rclavicle 3.18055e-015 -9.54166e-015
rhumerus -30.3688 13.789 -86.2356
rradius 120.611
rwrist 10.857
rhand 14.8045 -16.5217
rfingers 7.12502
rthumb 39.6676 -41.8471
lclavicle 3.18055e-015 -9.54166e-015
lhumerus -36.5673 0.490095 82.4218
lradius 126.772
lwrist 9.05391
lhand 3.71262 31.1068
lfingers 7.12502
lthumb 29.1413 58.8462
rfemur -72.4408 -9.08521 31.2613
rtibia 92.4032
rfoot -19.1918 -9.7238
rtoes -30.0487
lfemur -29.0707 20.3367 -19.6936
ltibia 62.0076
lfoot -30.8712 10.0614
ltoes -8.06022
1543
root -34.2529 15.1676 1.46127 541.142 -7.74131 -536.515
lowerback 29.1031 1.33977 -2.44395
upperback 9.74663 -1.42274 -0.654379
thorax -5.07215 -1.70063 1.23138
lowerneck 16.6047 0.606577 2.30658
upperneck -7.15023 1.3643 1.15558
head -4.82182 0.484419 -0.124397
rclavicle -1.82882e-014 -5.80451e-014
rhumerus -30.4899 13.9286 -86.2659
rradius 120.613
rwrist 10.8338
rhand 14.8472 -16.5038
rfingers 7.12502
rthumb 39.7078 -41.8173
lclavicle -1.82882e-014 -5.80451e-014
lhumerus -36.669 0.519604 82.4302
lradius 126.788
lwrist 9.07567
lhand 3.67724 31.0887
lfingers 7.12502
lthumb 29.1075 58.834
rfemur -71.3632 -8.80482 31.045
rtibia 89.3341
rfoot -19.3964 -9.96572
rtoes -30.0093
lfemur -28.3772 20.332 -19.7117
ltibia 61.6735
lfoot -30.9731 10.2767
ltoes -8.57366
1544
root -34.2802 15.1823 1.36852 541.137 -7.58855 -536.635
lowerback 28.9831 1.32168 -2.45495
upperback 9.6873 -1.42342 -0.648959
thorax -5.0821 -1.69199 1.24201
lowerneck 16.635 0.637313 2.22637
upperneck -7.13654 1.38757 1.14482
head -4.82258 0.499036 -0.117045
rclavicle 1.43125e-014 3.18055e-014
rhumerus -30.6265 14.0539 -86.3102
rradius 120.623
rwrist 10.7991
rhand 14.885 -16.4697
rfingers 7.12502
rthumb 39.7434 -41.7726
lclavicle 1.43125e-014 3.18055e-014
lhumerus -36.7865 0.550354 82.4214
lradius 126.819
lwrist 9.11015
lhand 3.66393 31.0747
lfingers 7.12502
lthumb 29.0948 58.8222
rfemur -70.2317 -8.52357 30.802
rtibia 86.1971
rfoot -19.6362 -10.271
rtoes -29.9718
lfemur -27.6697 20.3379 -19.736
ltibia 61.2961
lfoot -31.04 10.4657
ltoes -9.09009
1545
root -34.3065 15.1995 1.27408 541.141 -7.43946 -536.759
lowerback 28.8515 1.30483 -2.44064
upperback 9.62303 -1.4137 -0.656834
thorax -5.09313 -1.67674 1.21988
lowerneck 16.6941 0.64473 2.21449
upperneck -7.18323 1.39351 1.09903
head -4.84623 0.505123 -0.13038
rclavicle 9.54166e-015 1.82882e-014
rhumerus -30.7773 14.1275 -86.3751
rradius 120.638
rwrist 10.7532
rhand 14.9261 -16.4211
rfingers 7.12502
rthumb 39.782 -41.7125
lclavicle 9.54166e-015 1.82882e-014
lhumerus -36.9047 0.552891 82.4113
lradius 126.858
lwrist 9.1667
lhand 3.63588 31.0531
lfingers 7.12502
lthumb 29.068 58.8051
rfemur -69.0468 -8.23811 30.5406
rtibia 82.9988
rfoot -19.903 -10.6785
rtoes -29.9091
lfemur -26.9449 20.3545 -19.7618
ltibia 60.8746
lfoot -31.0777 10.6334
ltoes -9.59961
1546
root -34.3317 15.2194 1.17796 541.151 -7.29877 -536.887
lowerback 28.7085 1.2787 -2.44331
upperback 9.56105 -1.41913 -0.651914
thorax -5.09491 -1.66933 1.22607
lowerneck 16.735 0.665401 2.171
upperneck -7.25643 1.40942 1.03251
head -4.87525 0.518972 -0.14613
rclavicle -1.35174e-014 -1.35174e-014
rhumerus -30.904 14.2388 -86.4303
rradius 120.652
rwrist 10.6816
rhand 14.9678 -16.3942
rfingers 7.12502
rthumb 39.8213 -41.674
lclavicle -1.35174e-014 -1.35174e-014
lhumerus -37.0273 0.609677 82.4289
lradius 126.904
lwrist 9.22355
lhand 3.59958 31.0232
lfingers 7.12502
lthumb 29.0333 58.7812
rfemur -67.8125 -7.95684 30.2597
rtibia 79.7472
rfoot -20.1994 -11.1503
rtoes -29.719
lfemur -26.2023 20.38 -19.7906
ltibia 60.4082
lfoot -31.0847 10.7887
ltoes -10.1174
1547
root -34.3554 15.2419 1.08019 541.165 -7.16618 -537.018
lowerback 28.5571 1.24166 -2.47319
upperback 9.5021 -1.44495 -0.630135
thorax -5.08756 -1.67266 1.27257
lowerneck 16.7611 0.707069 2.08974
upperneck -7.36067 1.44484 0.950675
head -4.91167 0.544979 -0.1625
rclavicle 7.15625e-015 3.18055e-015
rhumerus -30.9997 14.4051 -86.472
rradius 120.658
rwrist 10.5819
rhand 15.0137 -16.3976
rfingers 7.12502
rthumb 39.8645 -41.6643
lclavicle 7.15625e-015 3.18055e-015
lhumerus -37.1554 0.741047 82.4684
lradius 126.958
lwrist 9.28582
lhand 3.56146 31.005
lfingers 7.12502
lthumb 28.9969 58.7693
rfemur -66.5279 -7.67088 29.9605
rtibia 76.4478
rfoot -20.509 -11.6862
rtoes -29.4246
lfemur -25.4391 20.4161 -19.8165
ltibia 59.8975
lfoot -31.0604 10.9268
ltoes -10.6273
1548
root -34.3777 15.2669 0.980875 541.178 -7.04424 -537.151
lowerback 28.4044 1.20197 -2.4891
upperback 9.44331 -1.47071 -0.616997
thorax -5.07963 -1.67557 1.30136
lowerneck 16.77 0.748856 2.00847
upperneck -7.46993 1.48185 0.886798
head -4.94712 0.570588 -0.173376
rclavicle 2.46493e-014 -1.66979e-014
rhumerus -31.0912 14.542 -86.5297
rradius 120.657
rwrist 10.4727
rhand 15.0689 -16.4164
rfingers 7.12502
rthumb 39.9165 -41.6676
lclavicle 2.46493e-014 -1.66979e-014
lhumerus -37.2853 0.851746 82.4956
lradius 127.011
lwrist 9.34629
lhand 3.50923 30.9852
lfingers 7.12502
lthumb 28.947 58.758
rfemur -65.1905 -7.38375 29.644
rtibia 73.1065
rfoot -20.8143 -12.2915
rtoes -29.1518
lfemur -24.6507 20.4607 -19.8361
ltibia 59.3436
lfoot -31.0015 11.0404
ltoes -11.1393
